<svg width="172" height="148" viewBox="0 0 172 148" fill="none" xmlns="http://www.w3.org/2000/svg">
<g clip-path="url(#clip0_1_9462)">
<path d="M73.7347 86.3019H44.6599C44.1765 86.3019 43.7847 85.9101 43.7847 85.4267V78.4938C43.7847 78.0104 44.1765 77.6187 44.6599 77.6187H73.7347C74.2181 77.6187 74.6098 78.0104 74.6098 78.4938V85.4267C74.6098 85.9101 74.2181 86.3019 73.7347 86.3019ZM45.535 84.5515H72.8595V79.369H45.535V84.5515Z" fill="white"/>
<path d="M49.7081 100H46.9496C46.6761 100 46.4183 99.872 46.2525 99.6543C46.0873 99.4365 46.0329 99.1534 46.1061 98.8896L49.9231 85.1914C50.053 84.726 50.5359 84.4539 51.0009 84.5833C51.4668 84.7131 51.7389 85.1956 51.6091 85.6615L48.1023 98.2497H49.0438L52.6822 85.1919C52.812 84.7265 53.2954 84.4544 53.7604 84.5837C54.2263 84.7136 54.4984 85.196 54.3686 85.6619L50.5516 99.3601C50.4457 99.7381 50.1013 100 49.7081 100Z" fill="white"/>
<path d="M71.4452 100H68.6871C68.2939 100 67.9496 99.738 67.8441 99.3596L64.0271 85.6615C63.9539 85.3977 64.0078 85.115 64.1731 84.8968C64.3388 84.679 64.5962 84.551 64.8701 84.551H67.6264C68.0195 84.551 68.3639 84.813 68.4693 85.1914L72.2882 98.8896C72.3614 99.1534 72.3075 99.436 72.1418 99.6542C71.977 99.872 71.7192 100 71.4452 100ZM69.3519 98.2496H70.2929L66.9621 86.3018H66.0224L69.3519 98.2496Z" fill="white"/>
<path d="M60.5767 86.3019H57.8185C57.3351 86.3019 56.9434 85.9101 56.9434 85.4267C56.9434 84.9433 57.3351 84.5515 57.8185 84.5515H60.5767C61.0601 84.5515 61.4519 84.9433 61.4519 85.4267C61.4519 85.9101 61.0601 86.3019 60.5767 86.3019Z" fill="white"/>
<path d="M69.1502 82.7233H49.2448C48.7614 82.7233 48.3696 82.3315 48.3696 81.8481C48.3696 81.3647 48.7614 80.973 49.2448 80.973H69.1502C69.6336 80.973 70.0254 81.3647 70.0254 81.8481C70.0254 82.3311 69.6336 82.7233 69.1502 82.7233Z" fill="white"/>
<path d="M63.3754 79.369H54.6134C54.1867 79.369 53.8216 79.061 53.7502 78.6402L51.6992 66.5203C51.6564 66.2666 51.7273 66.006 51.8935 65.8094C52.0602 65.6124 52.3046 65.4991 52.562 65.4991H65.4264C65.6842 65.4991 65.9286 65.6124 66.0948 65.8094C66.261 66.006 66.3324 66.2666 66.2891 66.5203L64.2381 78.6402C64.1672 79.061 63.8021 79.369 63.3754 79.369ZM55.3528 77.6186H62.6355L64.3905 67.2495H53.5983L55.3528 77.6186Z" fill="white"/>
<path d="M58.9945 67.1938C55.9251 67.1938 53.521 62.6278 53.521 56.7985C53.521 51.2228 58.2003 46.8211 58.3992 46.6365C58.7353 46.3253 59.2536 46.3253 59.5893 46.6365C59.7881 46.8211 64.4674 51.2228 64.4674 56.7985C64.4679 62.6273 62.0638 67.1938 58.9945 67.1938ZM58.9945 48.5392C57.8099 49.8518 55.2714 53.0975 55.2714 56.798C55.2714 61.8926 57.2335 65.443 58.9945 65.443C60.7554 65.443 62.7175 61.8926 62.7175 56.798C62.7175 53.0979 60.1795 49.8527 58.9945 48.5392Z" fill="white"/>
<path d="M58.9943 66.8053C58.5109 66.8053 58.1191 66.4135 58.1191 65.9301V52.5887C58.1191 52.1053 58.5109 51.7136 58.9943 51.7136C59.4777 51.7136 59.8695 52.1053 59.8695 52.5887V65.9301C59.8695 66.4135 59.4777 66.8053 58.9943 66.8053Z" fill="white"/>
<path d="M37.669 83.7762C37.3596 83.7762 37.0599 83.6119 36.9006 83.3218C32.3861 75.087 30 65.7427 30 56.298C30 25.255 55.255 0 86.298 0C117.341 0 142.596 25.255 142.596 56.298C142.596 65.7427 140.21 75.0875 135.695 83.3218C135.463 83.7454 134.931 83.9001 134.507 83.6685C134.084 83.436 133.928 82.9038 134.16 82.4802C138.534 74.5032 140.846 65.4499 140.846 56.2985C140.846 26.2209 116.376 1.75082 86.298 1.75082C56.2205 1.75036 31.7504 26.2205 31.7504 56.298C31.7504 65.449 34.0619 74.5028 38.4355 82.4798C38.6676 82.9038 38.5129 83.4355 38.0889 83.668C37.9554 83.7412 37.8108 83.7762 37.669 83.7762Z" fill="white"/>
<path d="M86.298 23.454C85.8146 23.454 85.4229 23.0623 85.4229 22.5789V1.02112C85.4229 0.537718 85.8146 0.145935 86.298 0.145935C86.7814 0.145935 87.1732 0.537718 87.1732 1.02112V22.5784C87.1737 23.0623 86.7814 23.454 86.298 23.454Z" fill="white"/>
<path d="M88.2606 28.8405H84.2101C83.7267 28.8405 83.335 28.4487 83.335 27.9653V24.6041C83.335 23.0047 84.636 21.7037 86.2354 21.7037C87.8343 21.7037 89.1357 23.0047 89.1357 24.6041V27.9653C89.1362 28.4487 88.744 28.8405 88.2606 28.8405ZM85.0853 27.0901H87.3854V24.6041C87.3854 23.9701 86.8698 23.454 86.2354 23.454C85.601 23.454 85.0853 23.9697 85.0853 24.6041V27.0901Z" fill="white"/>
<path d="M100.895 39.1171H71.7019C71.2185 39.1171 70.8267 38.7253 70.8267 38.2419V35.9142C70.7019 33.2965 72.955 30.9881 77.5243 29.0955C80.7267 27.7692 83.9061 27.1338 84.0396 27.1076C84.0953 27.0966 84.1524 27.091 84.209 27.091H87.8004C87.8432 27.0648 87.8884 27.0418 87.9358 27.0229C88.2369 26.9032 88.5762 26.9594 88.8206 27.1633C89.6663 27.3456 92.3605 27.9736 95.0707 29.0955C99.6285 30.9831 101.882 33.2831 101.769 35.9335V38.2419C101.77 38.7253 101.378 39.1171 100.895 39.1171ZM72.5766 37.3667H100.019V35.9142C100.019 35.9004 100.02 35.8866 100.02 35.8728C100.129 33.581 97.0366 31.8067 94.423 30.722C91.6464 29.5693 88.7962 28.9464 88.2935 28.8409C88.2829 28.8414 88.2719 28.8414 88.2613 28.8414H84.2988C83.7882 28.9482 80.944 29.5711 78.173 30.7216C75.5599 31.8067 72.4679 33.5805 72.5761 35.8728L72.5766 37.3667Z" fill="white"/>
<path d="M126.222 98.9793L122.125 74.4291C121.604 71.311 118.933 69.0477 115.771 69.0477H102.175C101.692 69.0477 101.3 69.4395 101.3 69.9229C101.3 70.4063 101.692 70.7981 102.175 70.7981H111.891L107.182 98.9789C107.102 99.4558 107.424 99.907 107.9 99.9866C107.95 99.9949 107.998 99.9986 108.046 99.9986C108.466 99.9986 108.837 99.6957 108.908 99.268L113.666 70.7981H115.771C118.073 70.7981 120.019 72.4463 120.398 74.7168L124.495 99.267C124.566 99.6952 124.937 99.9981 125.357 99.9981C125.404 99.9981 125.453 99.9945 125.502 99.9862C125.979 99.907 126.301 99.4563 126.222 98.9793Z" fill="white"/>
<path d="M80.0076 100C79.9597 100 79.9114 99.9963 79.8625 99.988C79.3861 99.9084 79.0638 99.4577 79.1434 98.9807L80.9541 88.1277C81.0338 87.6508 81.4849 87.3299 81.9614 87.4086C82.4379 87.4883 82.7602 87.939 82.6805 88.4159L80.8699 99.2689C80.798 99.6966 80.4274 100 80.0076 100Z" fill="white"/>
<path d="M83.7756 77.4294C83.7277 77.4294 83.6794 77.4253 83.6301 77.417C83.1536 77.3373 82.8314 76.8866 82.911 76.4097L84.0187 69.7779C84.0983 69.301 84.5481 68.9791 85.026 69.0588C85.5025 69.1384 85.8248 69.5892 85.7451 70.0661L84.6374 76.6979C84.5665 77.126 84.1955 77.4294 83.7756 77.4294Z" fill="white"/>
<path d="M97.3206 99.9972C96.9008 99.9972 96.5297 99.6943 96.4583 99.2662L94.7333 88.9242C94.6536 88.4472 94.9755 87.9965 95.4524 87.9169C95.9326 87.8372 96.3805 88.1595 96.4597 88.636L98.1848 98.978C98.2644 99.4549 97.9426 99.9056 97.4657 99.9853C97.4169 99.9936 97.3681 99.9972 97.3206 99.9972Z" fill="white"/>
<path d="M93.5503 77.4087C93.1304 77.4087 92.7593 77.1053 92.688 76.6772L92.3611 74.7169C91.9827 72.4458 90.0367 70.7977 87.7343 70.7977H74.1384C73.655 70.7977 73.2632 70.4059 73.2632 69.9225C73.2632 69.4391 73.655 69.0473 74.1384 69.0473H87.7343C90.8957 69.0473 93.5678 71.311 94.0875 74.4291L94.4144 76.3894C94.4941 76.8664 94.1722 77.3171 93.6953 77.3968C93.6465 77.4046 93.5977 77.4087 93.5503 77.4087Z" fill="white"/>
<path d="M124.813 84.7665C124.829 84.7439 124.844 84.7218 124.86 84.6993C126.202 82.7993 126.993 80.4845 126.993 77.9874V60.7664C126.993 54.9767 122.283 50.2665 116.494 50.2665H104.947C99.1575 50.2665 94.4468 54.9767 94.4468 60.7664V75.6579H84.4658C80.7018 75.6579 77.4579 78.5449 77.2728 82.3044C77.0749 86.323 80.287 89.6557 84.2633 89.6557H115.325C115.562 89.6557 115.797 89.6465 116.03 89.6327C116.101 89.6285 116.171 89.6221 116.241 89.6166C116.409 89.6032 116.576 89.5871 116.743 89.5669C116.815 89.5581 116.887 89.5494 116.959 89.5392C117.15 89.5125 117.339 89.4808 117.527 89.4449C117.564 89.4375 117.602 89.4324 117.639 89.4246C117.865 89.379 118.088 89.3261 118.308 89.2681C118.359 89.2543 118.41 89.2386 118.461 89.2248C118.633 89.1769 118.803 89.1254 118.971 89.0696C119.033 89.0494 119.094 89.0287 119.155 89.0075C119.329 88.9472 119.499 88.8827 119.668 88.8146C119.709 88.798 119.751 88.7833 119.791 88.7663C120.005 88.6774 120.216 88.5826 120.423 88.4817C120.438 88.4744 120.452 88.4665 120.467 88.4596C120.656 88.3666 120.841 88.2677 121.025 88.165C121.068 88.1406 121.112 88.1148 121.155 88.09C121.319 87.9951 121.481 87.8961 121.64 87.7935C121.673 87.7718 121.706 87.7511 121.74 87.7295C122.126 87.474 122.497 87.1959 122.85 86.8976C122.873 86.8787 122.894 86.8589 122.917 86.84C123.073 86.7061 123.225 86.5684 123.373 86.4266C123.396 86.405 123.419 86.3829 123.442 86.3612C123.78 86.033 124.099 85.6854 124.397 85.3185C124.4 85.3153 124.402 85.312 124.404 85.3088C124.544 85.1311 124.68 84.9506 124.813 84.7665ZM79.0375 83.1625C78.7438 80.0421 81.2013 77.4078 84.2623 77.4078H95.1038C95.1738 77.4257 95.2456 77.4382 95.3216 77.4382C95.3971 77.4382 95.4694 77.4257 95.5393 77.4078H107.38C107.863 77.4078 108.255 77.016 108.255 76.5326C108.255 76.0492 107.863 75.6574 107.38 75.6574H96.1972V60.766C96.1972 55.9416 100.122 52.0164 104.947 52.0164H116.494C121.318 52.0164 125.243 55.9412 125.243 60.766V77.9869C125.243 81.576 123.327 84.7255 120.464 86.4667C118.964 87.3787 117.205 87.9044 115.325 87.9044H84.417C81.6847 87.9049 79.2939 85.882 79.0375 83.1625Z" fill="white"/>
</g>
<path d="M15.735 129.528C14.967 126.144 12.183 124.368 8.94303 124.368C4.23903 124.368 1.38303 127.632 1.38303 132.864C1.38303 138.12 4.21503 141.312 8.87103 141.312C12.087 141.312 14.823 139.488 15.711 136.248H12.879C12.255 138.096 10.743 139.056 8.87103 139.056C5.87103 139.056 4.11903 136.728 4.11903 132.864C4.11903 129 5.89503 126.624 8.87103 126.624C10.815 126.624 12.375 127.656 12.927 129.528H15.735ZM18.2202 141H20.7882V134.016C20.7882 131.784 21.8442 130.296 24.2922 130.296C24.8202 130.296 25.2762 130.344 25.6602 130.464V128.208C25.4202 127.992 24.9402 127.872 24.4362 127.872C22.9482 127.872 21.6282 128.568 20.7882 130.104V128.208H18.2202V141ZM29.6442 132.384C29.8842 130.944 30.7722 130.032 32.4282 130.032C34.3962 130.032 35.2602 131.04 35.2602 132.912V133.2C32.9562 133.224 31.2282 133.368 29.5242 133.944C27.6042 134.592 26.6442 135.888 26.6442 137.64C26.6442 140.088 28.4202 141.312 31.0122 141.312C32.5482 141.312 34.2042 140.64 35.2842 139.128C35.3082 139.848 35.3802 140.52 35.5722 141H38.2602C37.9722 140.304 37.8282 139.416 37.8282 137.88V132.888C37.8282 129.912 36.1002 127.872 32.6202 127.872C29.4282 127.872 27.4842 129.552 27.0762 132.384H29.6442ZM29.2362 137.544C29.2362 136.08 30.3402 135 35.2602 134.952V135.528C35.2602 137.592 33.6282 139.296 31.4922 139.296C30.1242 139.296 29.2362 138.624 29.2362 137.544ZM39.6083 130.2H41.3363V141H43.8803V130.2H46.3283V128.208H43.8803V127.56C43.8803 126.096 44.3123 125.376 46.0883 125.376H46.3283V123.648C46.0643 123.528 45.5603 123.408 44.9123 123.408C42.5123 123.408 41.3363 124.752 41.3363 127.536V128.208H39.6083V130.2ZM48.2515 137.184C48.2515 139.944 49.4275 141.312 51.9235 141.312C52.6435 141.312 53.2435 141.216 53.5315 141.072V139.2H53.0275C51.2275 139.2 50.8195 138.504 50.8195 137.04V130.2H53.5795V128.208H50.8195V125.256H48.2515V128.208H46.5235V130.2H48.2515V137.184ZM56.4212 146.592C58.7012 146.592 59.6852 145.68 60.9812 142.488L66.7892 128.208H64.1732L61.1012 136.176L60.5492 137.928L59.9972 136.176L56.8292 128.208H54.0692L59.2052 140.544L58.8212 141.432C57.7172 144.096 57.1652 144.384 55.7012 144.384H55.0052V146.352C55.2932 146.448 55.8692 146.592 56.4212 146.592ZM73.3731 141H76.0611V134.136H83.7171V131.976H76.0611V126.84H84.6291V124.68H73.3731V141ZM94.8388 135.696C94.8388 137.472 93.6868 139.176 91.8148 139.176C90.1108 139.176 89.3428 138.072 89.3428 136.224V128.208H86.7748V136.752C86.7748 139.776 88.4068 141.312 91.0228 141.312C92.6548 141.312 93.9988 140.64 94.8388 139.272V141H97.3828V128.208H94.8388V135.696ZM100.509 141H103.077V134.016C103.077 131.784 104.133 130.296 106.581 130.296C107.109 130.296 107.565 130.344 107.949 130.464V128.208C107.709 127.992 107.229 127.872 106.725 127.872C105.237 127.872 103.917 128.568 103.077 130.104V128.208H100.509V141ZM109.697 141H112.265V133.488C112.265 131.712 113.417 130.008 115.337 130.008C117.089 130.008 117.905 131.136 117.905 132.984V141H120.449V132.456C120.449 129.432 118.793 127.872 116.129 127.872C114.473 127.872 113.129 128.544 112.265 129.912V128.208H109.697V141ZM123.572 126.624H126.14V123.72H123.572V126.624ZM123.572 141H126.14V128.208H123.572V141ZM129.58 137.184C129.58 139.944 130.756 141.312 133.252 141.312C133.972 141.312 134.572 141.216 134.86 141.072V139.2H134.356C132.556 139.2 132.148 138.504 132.148 137.04V130.2H134.908V128.208H132.148V125.256H129.58V128.208H127.852V130.2H129.58V137.184ZM144.901 135.696C144.901 137.472 143.749 139.176 141.877 139.176C140.173 139.176 139.405 138.072 139.405 136.224V128.208H136.837V136.752C136.837 139.776 138.469 141.312 141.085 141.312C142.717 141.312 144.061 140.64 144.901 139.272V141H147.445V128.208H144.901V135.696ZM150.572 141H153.14V134.016C153.14 131.784 154.196 130.296 156.644 130.296C157.172 130.296 157.628 130.344 158.012 130.464V128.208C157.772 127.992 157.292 127.872 156.788 127.872C155.3 127.872 153.98 128.568 153.14 130.104V128.208H150.572V141ZM170.877 136.824H168.189C167.757 138.408 166.605 139.176 164.973 139.176C162.885 139.176 161.661 137.712 161.517 135.096H170.781V134.472C170.781 130.368 168.549 127.872 164.853 127.872C161.205 127.872 158.901 130.272 158.901 134.616C158.901 138.792 161.205 141.312 164.973 141.312C167.973 141.312 170.181 139.8 170.877 136.824ZM164.853 130.008C166.677 130.008 167.805 131.184 168.117 133.344H161.589C161.901 131.184 163.005 130.008 164.853 130.008Z" fill="white"/>
<defs>
<clipPath id="clip0_1_9462">
<rect width="112.596" height="100" fill="white" transform="translate(30)"/>
</clipPath>
</defs>
</svg>
